<svg width="185" height="32" viewBox="0 0 185 32" fill="none" xmlns="http://www.w3.org/2000/svg">
<path d="M46.832 21.192C46.0107 21.192 45.2907 21.048 44.672 20.76C44.0533 20.472 43.568 20.0613 43.216 19.528C42.8747 18.9947 42.6987 18.36 42.688 17.624H44.48C44.4907 18.2213 44.6987 18.728 45.104 19.144C45.5093 19.56 46.08 19.768 46.816 19.768C47.4667 19.768 47.9733 19.6133 48.336 19.304C48.7093 18.984 48.896 18.5787 48.896 18.088C48.896 17.6933 48.8053 17.3733 48.624 17.128C48.4533 16.8827 48.2133 16.68 47.904 16.52C47.6053 16.36 47.2587 16.216 46.864 16.088C46.4693 15.96 46.0533 15.8213 45.616 15.672C44.752 15.384 44.1013 15.0107 43.664 14.552C43.2373 14.0933 43.024 13.4907 43.024 12.744C43.0133 12.1147 43.1573 11.5653 43.456 11.096C43.7653 10.6267 44.192 10.264 44.736 10.008C45.2907 9.74133 45.936 9.608 46.672 9.608C47.3973 9.608 48.032 9.74133 48.576 10.008C49.1307 10.2747 49.5627 10.648 49.872 11.128C50.1813 11.5973 50.3413 12.1467 50.352 12.776H48.56C48.56 12.488 48.4853 12.216 48.336 11.96C48.1867 11.6933 47.968 11.4747 47.68 11.304C47.392 11.1333 47.04 11.048 46.624 11.048C46.0907 11.0373 45.648 11.1707 45.296 11.448C44.9547 11.7253 44.784 12.1093 44.784 12.6C44.784 13.0373 44.912 13.3733 45.168 13.608C45.424 13.8427 45.776 14.04 46.224 14.2C46.672 14.3493 47.184 14.5253 47.76 14.728C48.3147 14.9093 48.8107 15.128 49.248 15.384C49.6853 15.64 50.032 15.976 50.288 16.392C50.5547 16.808 50.688 17.336 50.688 17.976C50.688 18.5413 50.544 19.0693 50.256 19.56C49.968 20.04 49.536 20.4347 48.96 20.744C48.384 21.0427 47.6747 21.192 46.832 21.192ZM53.4383 11.56C53.1183 11.56 52.8516 11.464 52.6383 11.272C52.4356 11.0693 52.3343 10.8187 52.3343 10.52C52.3343 10.2213 52.4356 9.976 52.6383 9.784C52.8516 9.58133 53.1183 9.48 53.4383 9.48C53.7583 9.48 54.0196 9.58133 54.2223 9.784C54.4356 9.976 54.5423 10.2213 54.5423 10.52C54.5423 10.8187 54.4356 11.0693 54.2223 11.272C54.0196 11.464 53.7583 11.56 53.4383 11.56ZM52.5903 21V13.064H54.2863V21H52.5903ZM59.7731 18.568C59.3571 18.568 58.9731 18.52 58.6211 18.424L57.9331 19.096C58.0505 19.1707 58.1945 19.2347 58.3651 19.288C58.5358 19.3413 58.7758 19.3893 59.0851 19.432C59.3945 19.4747 59.8158 19.5173 60.3491 19.56C61.4051 19.656 62.1678 19.912 62.6371 20.328C63.1065 20.7333 63.3411 21.2773 63.3411 21.96C63.3411 22.4293 63.2131 22.872 62.9571 23.288C62.7118 23.7147 62.3225 24.056 61.7891 24.312C61.2665 24.5787 60.5945 24.712 59.7731 24.712C58.6638 24.712 57.7625 24.4987 57.0691 24.072C56.3865 23.656 56.0451 23.0213 56.0451 22.168C56.0451 21.8373 56.1305 21.5067 56.3011 21.176C56.4825 20.856 56.7651 20.552 57.1491 20.264C56.9251 20.168 56.7278 20.0667 56.5571 19.96C56.3971 19.8427 56.2531 19.7253 56.1251 19.608V19.224L57.5011 17.816C56.8825 17.2827 56.5731 16.584 56.5731 15.72C56.5731 15.1973 56.6958 14.7227 56.9411 14.296C57.1971 13.8587 57.5651 13.512 58.0451 13.256C58.5251 13 59.1011 12.872 59.7731 12.872C60.2211 12.872 60.6371 12.936 61.0211 13.064H63.9811V14.184L62.5731 14.264C62.8291 14.7013 62.9571 15.1867 62.9571 15.72C62.9571 16.2533 62.8291 16.7333 62.5731 17.16C62.3278 17.5867 61.9651 17.928 61.4851 18.184C61.0158 18.44 60.4451 18.568 59.7731 18.568ZM59.7731 17.24C60.2638 17.24 60.6585 17.112 60.9571 16.856C61.2665 16.5893 61.4211 16.216 61.4211 15.736C61.4211 15.2453 61.2665 14.872 60.9571 14.616C60.6585 14.36 60.2638 14.232 59.7731 14.232C59.2718 14.232 58.8665 14.36 58.5571 14.616C58.2585 14.872 58.1091 15.2453 58.1091 15.736C58.1091 16.216 58.2585 16.5893 58.5571 16.856C58.8665 17.112 59.2718 17.24 59.7731 17.24ZM57.6451 22.008C57.6451 22.4667 57.8478 22.808 58.2531 23.032C58.6585 23.2667 59.1651 23.384 59.7731 23.384C60.3598 23.384 60.8345 23.256 61.1971 23C61.5598 22.7547 61.7411 22.424 61.7411 22.008C61.7411 21.6987 61.6185 21.432 61.3731 21.208C61.1278 20.9947 60.6638 20.8613 59.9811 20.808C59.4691 20.776 59.0158 20.728 58.6211 20.664C58.2478 20.8667 57.9918 21.0853 57.8531 21.32C57.7145 21.5547 57.6451 21.784 57.6451 22.008ZM65.4939 21V13.064H66.9979L67.1259 14.456C67.3712 13.9653 67.7285 13.5813 68.1979 13.304C68.6779 13.016 69.2272 12.872 69.8459 12.872C70.8059 12.872 71.5579 13.1707 72.1019 13.768C72.6565 14.3653 72.9339 15.256 72.9339 16.44V21H71.2539V16.616C71.2539 15.08 70.6245 14.312 69.3659 14.312C68.7365 14.312 68.2139 14.536 67.7979 14.984C67.3925 15.432 67.1899 16.072 67.1899 16.904V21H65.4939ZM79.9226 11.56C79.6026 11.56 79.336 11.464 79.1226 11.272C78.92 11.0693 78.8186 10.8187 78.8186 10.52C78.8186 10.2213 78.92 9.976 79.1226 9.784C79.336 9.58133 79.6026 9.48 79.9226 9.48C80.2426 9.48 80.504 9.58133 80.7066 9.784C80.92 9.976 81.0266 10.2213 81.0266 10.52C81.0266 10.8187 80.92 11.0693 80.7066 11.272C80.504 11.464 80.2426 11.56 79.9226 11.56ZM79.0746 21V13.064H80.7706V21H79.0746ZM83.0095 21V13.064H84.5135L84.6415 14.456C84.8868 13.9653 85.2442 13.5813 85.7135 13.304C86.1935 13.016 86.7428 12.872 87.3615 12.872C88.3215 12.872 89.0735 13.1707 89.6175 13.768C90.1722 14.3653 90.4495 15.256 90.4495 16.44V21H88.7695V16.616C88.7695 15.08 88.1402 14.312 86.8815 14.312C86.2522 14.312 85.7295 14.536 85.3135 14.984C84.9082 15.432 84.7055 16.072 84.7055 16.904V21H83.0095ZM98.0623 21L95.7263 13.064H97.4223L98.9583 19.048L100.686 13.064H102.574L104.302 19.048L105.838 13.064H107.534L105.198 21H103.454L101.63 14.76L99.8063 21H98.0623ZM109.891 11.56C109.571 11.56 109.305 11.464 109.091 11.272C108.889 11.0693 108.787 10.8187 108.787 10.52C108.787 10.2213 108.889 9.976 109.091 9.784C109.305 9.58133 109.571 9.48 109.891 9.48C110.211 9.48 110.473 9.58133 110.675 9.784C110.889 9.976 110.995 10.2213 110.995 10.52C110.995 10.8187 110.889 11.0693 110.675 11.272C110.473 11.464 110.211 11.56 109.891 11.56ZM109.043 21V13.064H110.739V21H109.043ZM116.306 21C115.528 21 114.909 20.8133 114.45 20.44C113.992 20.056 113.762 19.3787 113.762 18.408V14.488H112.402V13.064H113.762L113.97 11.048H115.458V13.064H117.698V14.488H115.458V18.408C115.458 18.8453 115.549 19.1493 115.73 19.32C115.922 19.48 116.248 19.56 116.706 19.56H117.618V21H116.306ZM119.447 21V9.48H121.143V14.344C121.41 13.8853 121.778 13.528 122.247 13.272C122.727 13.0053 123.255 12.872 123.831 12.872C124.78 12.872 125.527 13.1707 126.071 13.768C126.615 14.3653 126.887 15.256 126.887 16.44V21H125.207V16.616C125.207 15.08 124.594 14.312 123.367 14.312C122.727 14.312 122.194 14.536 121.767 14.984C121.351 15.432 121.143 16.072 121.143 16.904V21H119.447ZM137.844 21.192C136.788 21.192 135.865 20.952 135.076 20.472C134.286 19.992 133.673 19.32 133.236 18.456C132.798 17.592 132.58 16.584 132.58 15.432C132.58 14.2907 132.804 13.2827 133.252 12.408C133.7 11.5333 134.334 10.8507 135.156 10.36C135.988 9.85867 136.969 9.608 138.1 9.608C139.38 9.608 140.446 9.91733 141.3 10.536C142.153 11.1547 142.708 12.008 142.964 13.096H141.044C140.873 12.4987 140.537 12.0293 140.036 11.688C139.534 11.3467 138.889 11.176 138.1 11.176C136.926 11.176 136.004 11.5547 135.332 12.312C134.66 13.0693 134.324 14.1147 134.324 15.448C134.324 16.7813 134.654 17.8213 135.316 18.568C135.977 19.3147 136.857 19.688 137.956 19.688C139.065 19.688 139.897 19.3733 140.452 18.744C141.017 18.1147 141.348 17.2773 141.444 16.232H138.404V14.92H143.156V21H141.604L141.46 19.352C141.086 19.9387 140.617 20.392 140.052 20.712C139.486 21.032 138.75 21.192 137.844 21.192ZM148.862 21.192C148.105 21.192 147.422 21.0213 146.814 20.68C146.217 20.328 145.742 19.8427 145.39 19.224C145.038 18.5947 144.862 17.864 144.862 17.032C144.862 16.2 145.038 15.4747 145.39 14.856C145.753 14.2267 146.238 13.7413 146.846 13.4C147.454 13.048 148.131 12.872 148.878 12.872C149.635 12.872 150.313 13.048 150.91 13.4C151.518 13.7413 151.998 14.2267 152.35 14.856C152.713 15.4747 152.894 16.2 152.894 17.032C152.894 17.864 152.713 18.5947 152.35 19.224C151.998 19.8427 151.518 20.328 150.91 20.68C150.302 21.0213 149.619 21.192 148.862 21.192ZM148.862 19.736C149.267 19.736 149.641 19.6347 149.982 19.432C150.334 19.2293 150.617 18.9307 150.83 18.536C151.043 18.1307 151.15 17.6293 151.15 17.032C151.15 16.4347 151.043 15.9387 150.83 15.544C150.627 15.1387 150.35 14.8347 149.998 14.632C149.657 14.4293 149.283 14.328 148.878 14.328C148.473 14.328 148.094 14.4293 147.742 14.632C147.401 14.8347 147.123 15.1387 146.91 15.544C146.697 15.9387 146.59 16.4347 146.59 17.032C146.59 17.6293 146.697 18.1307 146.91 18.536C147.123 18.9307 147.401 19.2293 147.742 19.432C148.083 19.6347 148.457 19.736 148.862 19.736ZM158.44 21.192C157.683 21.192 157 21.0213 156.392 20.68C155.795 20.328 155.32 19.8427 154.968 19.224C154.616 18.5947 154.44 17.864 154.44 17.032C154.44 16.2 154.616 15.4747 154.968 14.856C155.331 14.2267 155.816 13.7413 156.424 13.4C157.032 13.048 157.71 12.872 158.456 12.872C159.214 12.872 159.891 13.048 160.488 13.4C161.096 13.7413 161.576 14.2267 161.928 14.856C162.291 15.4747 162.472 16.2 162.472 17.032C162.472 17.864 162.291 18.5947 161.928 19.224C161.576 19.8427 161.096 20.328 160.488 20.68C159.88 21.0213 159.198 21.192 158.44 21.192ZM158.44 19.736C158.846 19.736 159.219 19.6347 159.56 19.432C159.912 19.2293 160.195 18.9307 160.408 18.536C160.622 18.1307 160.728 17.6293 160.728 17.032C160.728 16.4347 160.622 15.9387 160.408 15.544C160.206 15.1387 159.928 14.8347 159.576 14.632C159.235 14.4293 158.862 14.328 158.456 14.328C158.051 14.328 157.672 14.4293 157.32 14.632C156.979 14.8347 156.702 15.1387 156.488 15.544C156.275 15.9387 156.168 16.4347 156.168 17.032C156.168 17.6293 156.275 18.1307 156.488 18.536C156.702 18.9307 156.979 19.2293 157.32 19.432C157.662 19.6347 158.035 19.736 158.44 19.736ZM167.133 18.568C166.717 18.568 166.333 18.52 165.981 18.424L165.293 19.096C165.41 19.1707 165.554 19.2347 165.725 19.288C165.895 19.3413 166.135 19.3893 166.445 19.432C166.754 19.4747 167.175 19.5173 167.709 19.56C168.765 19.656 169.527 19.912 169.997 20.328C170.466 20.7333 170.701 21.2773 170.701 21.96C170.701 22.4293 170.573 22.872 170.317 23.288C170.071 23.7147 169.682 24.056 169.149 24.312C168.626 24.5787 167.954 24.712 167.133 24.712C166.023 24.712 165.122 24.4987 164.429 24.072C163.746 23.656 163.405 23.0213 163.405 22.168C163.405 21.8373 163.49 21.5067 163.661 21.176C163.842 20.856 164.125 20.552 164.509 20.264C164.285 20.168 164.087 20.0667 163.917 19.96C163.757 19.8427 163.613 19.7253 163.485 19.608V19.224L164.861 17.816C164.242 17.2827 163.933 16.584 163.933 15.72C163.933 15.1973 164.055 14.7227 164.301 14.296C164.557 13.8587 164.925 13.512 165.405 13.256C165.885 13 166.461 12.872 167.133 12.872C167.581 12.872 167.997 12.936 168.381 13.064H171.341V14.184L169.933 14.264C170.189 14.7013 170.317 15.1867 170.317 15.72C170.317 16.2533 170.189 16.7333 169.933 17.16C169.687 17.5867 169.325 17.928 168.845 18.184C168.375 18.44 167.805 18.568 167.133 18.568ZM167.133 17.24C167.623 17.24 168.018 17.112 168.317 16.856C168.626 16.5893 168.781 16.216 168.781 15.736C168.781 15.2453 168.626 14.872 168.317 14.616C168.018 14.36 167.623 14.232 167.133 14.232C166.631 14.232 166.226 14.36 165.917 14.616C165.618 14.872 165.469 15.2453 165.469 15.736C165.469 16.216 165.618 16.5893 165.917 16.856C166.226 17.112 166.631 17.24 167.133 17.24ZM165.005 22.008C165.005 22.4667 165.207 22.808 165.613 23.032C166.018 23.2667 166.525 23.384 167.133 23.384C167.719 23.384 168.194 23.256 168.557 23C168.919 22.7547 169.101 22.424 169.101 22.008C169.101 21.6987 168.978 21.432 168.733 21.208C168.487 20.9947 168.023 20.8613 167.341 20.808C166.829 20.776 166.375 20.728 165.981 20.664C165.607 20.8667 165.351 21.0853 165.213 21.32C165.074 21.5547 165.005 21.784 165.005 22.008ZM172.853 21V9.48H174.549V21H172.853ZM180.409 21.192C179.63 21.192 178.937 21.0213 178.329 20.68C177.732 20.328 177.262 19.8427 176.921 19.224C176.58 18.6053 176.409 17.8853 176.409 17.064C176.409 16.232 176.574 15.5013 176.905 14.872C177.246 14.2427 177.716 13.752 178.313 13.4C178.921 13.048 179.625 12.872 180.425 12.872C181.204 12.872 181.881 13.048 182.457 13.4C183.033 13.7413 183.481 14.2 183.801 14.776C184.121 15.352 184.281 15.9867 184.281 16.68C184.281 16.7867 184.276 16.904 184.265 17.032C184.265 17.1493 184.26 17.2827 184.249 17.432H178.073C178.126 18.2 178.377 18.7867 178.825 19.192C179.284 19.5867 179.812 19.784 180.409 19.784C180.889 19.784 181.289 19.6773 181.609 19.464C181.94 19.24 182.185 18.9413 182.345 18.568H184.041C183.828 19.3147 183.401 19.9387 182.761 20.44C182.132 20.9413 181.348 21.192 180.409 21.192ZM180.409 14.264C179.844 14.264 179.342 14.4347 178.905 14.776C178.468 15.1067 178.201 15.608 178.105 16.28H182.585C182.553 15.6613 182.334 15.1707 181.929 14.808C181.524 14.4453 181.017 14.264 180.409 14.264Z" fill="black"/>
<path d="M30.0014 16.3109C30.0014 15.1598 29.9061 14.3198 29.6998 13.4487H16.2871V18.6442H24.1601C24.0014 19.9354 23.1442 21.8798 21.2394 23.1864L21.2127 23.3604L25.4536 26.58L25.7474 26.6087C28.4458 24.1665 30.0014 20.5731 30.0014 16.3109Z" fill="#4285F4"/>
<path d="M16.2863 30C20.1434 30 23.3814 28.7555 25.7466 26.6089L21.2386 23.1865C20.0323 24.011 18.4132 24.5866 16.2863 24.5866C12.5086 24.5866 9.30225 22.1444 8.15929 18.7688L7.99176 18.7827L3.58208 22.1272L3.52441 22.2843C5.87359 26.8577 10.699 30 16.2863 30Z" fill="#34A853"/>
<path d="M8.16013 18.769C7.85855 17.8979 7.68401 16.9645 7.68401 16.0001C7.68401 15.0356 7.85855 14.1023 8.14426 13.2312L8.13627 13.0456L3.67132 9.64746L3.52524 9.71556C2.55703 11.6134 2.00146 13.7445 2.00146 16.0001C2.00146 18.2556 2.55703 20.3867 3.52524 22.2845L8.16013 18.769Z" fill="#FBBC05"/>
<path d="M16.2864 7.4133C18.9689 7.4133 20.7784 8.54885 21.8102 9.4978L25.8419 5.64C23.3658 3.38445 20.1435 2 16.2864 2C10.699 2 5.8736 5.1422 3.52441 9.71549L8.14345 13.2311C9.30229 9.85555 12.5086 7.4133 16.2864 7.4133Z" fill="#EB4335"/>
</svg>
