<svg width="177" height="32" viewBox="0 0 177 32" fill="none" xmlns="http://www.w3.org/2000/svg">
<path d="M46.832 21.192C46.0107 21.192 45.2907 21.048 44.672 20.76C44.0533 20.472 43.568 20.0613 43.216 19.528C42.8747 18.9947 42.6987 18.36 42.688 17.624H44.48C44.4907 18.2213 44.6987 18.728 45.104 19.144C45.5093 19.56 46.08 19.768 46.816 19.768C47.4667 19.768 47.9733 19.6133 48.336 19.304C48.7093 18.984 48.896 18.5787 48.896 18.088C48.896 17.6933 48.8053 17.3733 48.624 17.128C48.4533 16.8827 48.2133 16.68 47.904 16.52C47.6053 16.36 47.2587 16.216 46.864 16.088C46.4693 15.96 46.0533 15.8213 45.616 15.672C44.752 15.384 44.1013 15.0107 43.664 14.552C43.2373 14.0933 43.024 13.4907 43.024 12.744C43.0133 12.1147 43.1573 11.5653 43.456 11.096C43.7653 10.6267 44.192 10.264 44.736 10.008C45.2907 9.74133 45.936 9.608 46.672 9.608C47.3973 9.608 48.032 9.74133 48.576 10.008C49.1307 10.2747 49.5627 10.648 49.872 11.128C50.1813 11.5973 50.3413 12.1467 50.352 12.776H48.56C48.56 12.488 48.4853 12.216 48.336 11.96C48.1867 11.6933 47.968 11.4747 47.68 11.304C47.392 11.1333 47.04 11.048 46.624 11.048C46.0907 11.0373 45.648 11.1707 45.296 11.448C44.9547 11.7253 44.784 12.1093 44.784 12.6C44.784 13.0373 44.912 13.3733 45.168 13.608C45.424 13.8427 45.776 14.04 46.224 14.2C46.672 14.3493 47.184 14.5253 47.76 14.728C48.3147 14.9093 48.8107 15.128 49.248 15.384C49.6853 15.64 50.032 15.976 50.288 16.392C50.5547 16.808 50.688 17.336 50.688 17.976C50.688 18.5413 50.544 19.0693 50.256 19.56C49.968 20.04 49.536 20.4347 48.96 20.744C48.384 21.0427 47.6747 21.192 46.832 21.192ZM53.4383 11.56C53.1183 11.56 52.8516 11.464 52.6383 11.272C52.4356 11.0693 52.3343 10.8187 52.3343 10.52C52.3343 10.2213 52.4356 9.976 52.6383 9.784C52.8516 9.58133 53.1183 9.48 53.4383 9.48C53.7583 9.48 54.0196 9.58133 54.2223 9.784C54.4356 9.976 54.5423 10.2213 54.5423 10.52C54.5423 10.8187 54.4356 11.0693 54.2223 11.272C54.0196 11.464 53.7583 11.56 53.4383 11.56ZM52.5903 21V13.064H54.2863V21H52.5903ZM59.7731 18.568C59.3571 18.568 58.9731 18.52 58.6211 18.424L57.9331 19.096C58.0505 19.1707 58.1945 19.2347 58.3651 19.288C58.5358 19.3413 58.7758 19.3893 59.0851 19.432C59.3945 19.4747 59.8158 19.5173 60.3491 19.56C61.4051 19.656 62.1678 19.912 62.6371 20.328C63.1065 20.7333 63.3411 21.2773 63.3411 21.96C63.3411 22.4293 63.2131 22.872 62.9571 23.288C62.7118 23.7147 62.3225 24.056 61.7891 24.312C61.2665 24.5787 60.5945 24.712 59.7731 24.712C58.6638 24.712 57.7625 24.4987 57.0691 24.072C56.3865 23.656 56.0451 23.0213 56.0451 22.168C56.0451 21.8373 56.1305 21.5067 56.3011 21.176C56.4825 20.856 56.7651 20.552 57.1491 20.264C56.9251 20.168 56.7278 20.0667 56.5571 19.96C56.3971 19.8427 56.2531 19.7253 56.1251 19.608V19.224L57.5011 17.816C56.8825 17.2827 56.5731 16.584 56.5731 15.72C56.5731 15.1973 56.6958 14.7227 56.9411 14.296C57.1971 13.8587 57.5651 13.512 58.0451 13.256C58.5251 13 59.1011 12.872 59.7731 12.872C60.2211 12.872 60.6371 12.936 61.0211 13.064H63.9811V14.184L62.5731 14.264C62.8291 14.7013 62.9571 15.1867 62.9571 15.72C62.9571 16.2533 62.8291 16.7333 62.5731 17.16C62.3278 17.5867 61.9651 17.928 61.4851 18.184C61.0158 18.44 60.4451 18.568 59.7731 18.568ZM59.7731 17.24C60.2638 17.24 60.6585 17.112 60.9571 16.856C61.2665 16.5893 61.4211 16.216 61.4211 15.736C61.4211 15.2453 61.2665 14.872 60.9571 14.616C60.6585 14.36 60.2638 14.232 59.7731 14.232C59.2718 14.232 58.8665 14.36 58.5571 14.616C58.2585 14.872 58.1091 15.2453 58.1091 15.736C58.1091 16.216 58.2585 16.5893 58.5571 16.856C58.8665 17.112 59.2718 17.24 59.7731 17.24ZM57.6451 22.008C57.6451 22.4667 57.8478 22.808 58.2531 23.032C58.6585 23.2667 59.1651 23.384 59.7731 23.384C60.3598 23.384 60.8345 23.256 61.1971 23C61.5598 22.7547 61.7411 22.424 61.7411 22.008C61.7411 21.6987 61.6185 21.432 61.3731 21.208C61.1278 20.9947 60.6638 20.8613 59.9811 20.808C59.4691 20.776 59.0158 20.728 58.6211 20.664C58.2478 20.8667 57.9918 21.0853 57.8531 21.32C57.7145 21.5547 57.6451 21.784 57.6451 22.008ZM65.4939 21V13.064H66.9979L67.1259 14.456C67.3712 13.9653 67.7285 13.5813 68.1979 13.304C68.6779 13.016 69.2272 12.872 69.8459 12.872C70.8059 12.872 71.5579 13.1707 72.1019 13.768C72.6565 14.3653 72.9339 15.256 72.9339 16.44V21H71.2539V16.616C71.2539 15.08 70.6245 14.312 69.3659 14.312C68.7365 14.312 68.2139 14.536 67.7979 14.984C67.3925 15.432 67.1899 16.072 67.1899 16.904V21H65.4939ZM79.9226 11.56C79.6026 11.56 79.336 11.464 79.1226 11.272C78.92 11.0693 78.8186 10.8187 78.8186 10.52C78.8186 10.2213 78.92 9.976 79.1226 9.784C79.336 9.58133 79.6026 9.48 79.9226 9.48C80.2426 9.48 80.504 9.58133 80.7066 9.784C80.92 9.976 81.0266 10.2213 81.0266 10.52C81.0266 10.8187 80.92 11.0693 80.7066 11.272C80.504 11.464 80.2426 11.56 79.9226 11.56ZM79.0746 21V13.064H80.7706V21H79.0746ZM83.0095 21V13.064H84.5135L84.6415 14.456C84.8868 13.9653 85.2442 13.5813 85.7135 13.304C86.1935 13.016 86.7428 12.872 87.3615 12.872C88.3215 12.872 89.0735 13.1707 89.6175 13.768C90.1722 14.3653 90.4495 15.256 90.4495 16.44V21H88.7695V16.616C88.7695 15.08 88.1402 14.312 86.8815 14.312C86.2522 14.312 85.7295 14.536 85.3135 14.984C84.9082 15.432 84.7055 16.072 84.7055 16.904V21H83.0095ZM98.0623 21L95.7263 13.064H97.4223L98.9583 19.048L100.686 13.064H102.574L104.302 19.048L105.838 13.064H107.534L105.198 21H103.454L101.63 14.76L99.8063 21H98.0623ZM109.891 11.56C109.571 11.56 109.305 11.464 109.091 11.272C108.889 11.0693 108.787 10.8187 108.787 10.52C108.787 10.2213 108.889 9.976 109.091 9.784C109.305 9.58133 109.571 9.48 109.891 9.48C110.211 9.48 110.473 9.58133 110.675 9.784C110.889 9.976 110.995 10.2213 110.995 10.52C110.995 10.8187 110.889 11.0693 110.675 11.272C110.473 11.464 110.211 11.56 109.891 11.56ZM109.043 21V13.064H110.739V21H109.043ZM116.306 21C115.528 21 114.909 20.8133 114.45 20.44C113.992 20.056 113.762 19.3787 113.762 18.408V14.488H112.402V13.064H113.762L113.97 11.048H115.458V13.064H117.698V14.488H115.458V18.408C115.458 18.8453 115.549 19.1493 115.73 19.32C115.922 19.48 116.248 19.56 116.706 19.56H117.618V21H116.306ZM119.447 21V9.48H121.143V14.344C121.41 13.8853 121.778 13.528 122.247 13.272C122.727 13.0053 123.255 12.872 123.831 12.872C124.78 12.872 125.527 13.1707 126.071 13.768C126.615 14.3653 126.887 15.256 126.887 16.44V21H125.207V16.616C125.207 15.08 124.594 14.312 123.367 14.312C122.727 14.312 122.194 14.536 121.767 14.984C121.351 15.432 121.143 16.072 121.143 16.904V21H119.447ZM132.26 21L136.388 9.8H138.244L142.34 21H140.548L139.588 18.264H135.012L134.052 21H132.26ZM135.492 16.92H139.108L137.3 11.816L135.492 16.92ZM143.838 24.52V13.064H145.358L145.534 14.296C145.79 13.9227 146.142 13.592 146.59 13.304C147.038 13.016 147.614 12.872 148.318 12.872C149.086 12.872 149.763 13.0533 150.35 13.416C150.936 13.7787 151.395 14.2747 151.726 14.904C152.067 15.5333 152.238 16.248 152.238 17.048C152.238 17.848 152.067 18.5627 151.726 19.192C151.395 19.8107 150.936 20.3013 150.35 20.664C149.763 21.016 149.08 21.192 148.302 21.192C147.683 21.192 147.134 21.0693 146.654 20.824C146.184 20.5787 145.811 20.232 145.534 19.784V24.52H143.838ZM148.014 19.72C148.739 19.72 149.336 19.4747 149.806 18.984C150.275 18.4827 150.51 17.832 150.51 17.032C150.51 16.5093 150.403 16.0453 150.19 15.64C149.976 15.2347 149.683 14.92 149.31 14.696C148.936 14.4613 148.504 14.344 148.014 14.344C147.288 14.344 146.691 14.5947 146.222 15.096C145.763 15.5973 145.534 16.2427 145.534 17.032C145.534 17.832 145.763 18.4827 146.222 18.984C146.691 19.4747 147.288 19.72 148.014 19.72ZM154.072 24.52V13.064H155.592L155.768 14.296C156.024 13.9227 156.376 13.592 156.824 13.304C157.272 13.016 157.848 12.872 158.552 12.872C159.32 12.872 159.997 13.0533 160.584 13.416C161.171 13.7787 161.629 14.2747 161.96 14.904C162.301 15.5333 162.472 16.248 162.472 17.048C162.472 17.848 162.301 18.5627 161.96 19.192C161.629 19.8107 161.171 20.3013 160.584 20.664C159.997 21.016 159.315 21.192 158.536 21.192C157.917 21.192 157.368 21.0693 156.888 20.824C156.419 20.5787 156.045 20.232 155.768 19.784V24.52H154.072ZM158.248 19.72C158.973 19.72 159.571 19.4747 160.04 18.984C160.509 18.4827 160.744 17.832 160.744 17.032C160.744 16.5093 160.637 16.0453 160.424 15.64C160.211 15.2347 159.917 14.92 159.544 14.696C159.171 14.4613 158.739 14.344 158.248 14.344C157.523 14.344 156.925 14.5947 156.456 15.096C155.997 15.5973 155.768 16.2427 155.768 17.032C155.768 17.832 155.997 18.4827 156.456 18.984C156.925 19.4747 157.523 19.72 158.248 19.72ZM164.306 21V9.48H166.002V21H164.306ZM171.862 21.192C171.083 21.192 170.39 21.0213 169.782 20.68C169.185 20.328 168.715 19.8427 168.374 19.224C168.033 18.6053 167.862 17.8853 167.862 17.064C167.862 16.232 168.027 15.5013 168.358 14.872C168.699 14.2427 169.169 13.752 169.766 13.4C170.374 13.048 171.078 12.872 171.878 12.872C172.657 12.872 173.334 13.048 173.91 13.4C174.486 13.7413 174.934 14.2 175.254 14.776C175.574 15.352 175.734 15.9867 175.734 16.68C175.734 16.7867 175.729 16.904 175.718 17.032C175.718 17.1493 175.713 17.2827 175.702 17.432H169.526C169.579 18.2 169.83 18.7867 170.278 19.192C170.737 19.5867 171.265 19.784 171.862 19.784C172.342 19.784 172.742 19.6773 173.062 19.464C173.393 19.24 173.638 18.9413 173.798 18.568H175.494C175.281 19.3147 174.854 19.9387 174.214 20.44C173.585 20.9413 172.801 21.192 171.862 21.192ZM171.862 14.264C171.297 14.264 170.795 14.4347 170.358 14.776C169.921 15.1067 169.654 15.608 169.558 16.28H174.038C174.006 15.6613 173.787 15.1707 173.382 14.808C172.977 14.4453 172.47 14.264 171.862 14.264Z" fill="black"/>
<path d="M30 16C30 23.728 23.735 30 16 30C8.265 30 2 23.728 2 16C2 8.265 8.265 2 16 2C23.735 2 30 8.265 30 16Z" fill="#283544"/>
<path d="M22.5621 12.4574C22.4857 12.502 20.6671 13.4425 20.6671 15.5279C20.7528 17.9061 22.9621 18.7401 23 18.7401C22.9621 18.7847 22.6665 19.8763 21.7907 21.0205C21.0956 22.0062 20.3242 23 19.1528 23C18.0385 23 17.6385 22.3431 16.3528 22.3431C14.972 22.3431 14.5813 23 13.5242 23C12.3528 23 11.5242 21.953 10.7913 20.9766C9.8391 19.6986 9.02978 17.6931 9.00121 15.7675C8.98195 14.7471 9.19189 13.744 9.72481 12.8921C10.477 11.7026 11.8198 10.8952 13.2863 10.8686C14.4099 10.8333 15.4099 11.5875 16.0956 11.5875C16.7528 11.5875 17.9814 10.8686 19.3714 10.8686C19.9714 10.8692 21.5714 11.0376 22.5621 12.4574ZM16.0006 10.6649C15.8006 9.73303 16.3528 8.80119 16.8671 8.20677C17.5242 7.48792 18.5621 7 19.4571 7C19.5143 7.93185 19.1522 8.84575 18.505 9.51136C17.9242 10.2302 16.9242 10.7714 16.0006 10.6649Z" fill="white"/>
</svg>
